<?xml version="1.0"?>
<svg width="16" height="16" xmlns="http://www.w3.org/2000/svg" xmlns:svg="http://www.w3.org/2000/svg">
 <g class="layer">
  <title>Layer 1</title>
  <path d="m3,1a1,1 0 0 0 -1,1c0,1.5 0.97,2.63 1.87,3.66c0.76,0.87 1.42,1.64 1.88,2.34c-0.46,0.7 -1.12,1.47 -1.88,2.34c-0.9,1.04 -1.87,2.16 -1.87,3.66a1,1 0 0 0 1,1l10,0a1,1 0 0 0 1,-1c0,-1.5 -0.97,-2.62 -1.87,-3.66c-0.76,-0.87 -1.42,-1.64 -1.88,-2.34c0.46,-0.7 1.12,-1.47 1.88,-2.34c0.9,-1.03 1.87,-2.16 1.87,-3.66a1,1 0 0 0 -1,-1l-10,0zm8.41,2c-0.24,0.44 -0.3,0.79 -0.79,1.34c-0.84,0.97 -1.89,1.97 -2.51,3.21a1,1 0 0 0 -0.11,0.45a1,1 0 0 0 -0.11,-0.45c-0.61,-1.24 -1.67,-2.24 -2.51,-3.21c-0.49,-0.55 -0.55,-0.9 -0.79,-1.34l6.82,0z" fill="#ffff00" id="svg_1"/>
 </g>
</svg>